<?xml version="1.0" encoding="UTF-8" standalone="no"?>
<!-- Created with Inkscape (http://www.inkscape.org/) -->
<svg id="svg4393" xmlns:rdf="http://www.w3.org/1999/02/22-rdf-syntax-ns#" xmlns="http://www.w3.org/2000/svg" height="58.597mm" width="45.082mm" version="1.1" xmlns:cc="http://creativecommons.org/ns#" xmlns:dc="http://purl.org/dc/elements/1.1/" viewBox="0 0 159.73875 207.6275">
 <metadata id="metadata4398">
  <rdf:RDF>
   <cc:Work rdf:about="">
    <dc:format>image/svg+xml</dc:format>
    <dc:type rdf:resource="http://purl.org/dc/dcmitype/StillImage"/>
    <dc:title/>
   </cc:Work>
  </rdf:RDF>
 </metadata>
 <g id="layer1" transform="translate(654.16 -528.55)">
  <path id="path170" d="m-529.58 604.85c0-24.754-20.062-44.819-44.818-44.819-24.75 0-44.816 20.065-44.816 44.819 0 24.751 20.066 44.818 44.816 44.818 24.755 0 44.818-20.066 44.818-44.818" fill="#c14b55"/>
  <path id="path172" d="m-537.28 605.54c-0.15375 0-0.30125 0.0512-0.455 0.0688-2.705-23.591-18.469-41.716-37.571-41.716-19.139 0-34.929 18.196-37.589 41.852-3.0925 0.93-5.4162 4.9438-5.4162 9.755 0 5.2525 2.7825 9.5112 6.3012 9.8862 2.5162 12.149 8.5838 22.415 16.672 28.901v11.462h38.025l-0.0575-11.572c9.1375-6.3475 16.084-15.705 18.791-28.911 0.4225 0.12 0.855 0.19375 1.2988 0.19375 3.75 0 6.7888-4.46 6.7888-9.96 0-5.5012-3.0388-9.96-6.7888-9.96" fill="#fab850"/>
  <path id="path174" d="m-545.48 661.67s-1.4362-10.876-7.435-7.4838c-10.955 6.1975-20.302 8.7688-22.584 9.2025-2.2825-0.43375-10.86-2.3112-21.815-8.51-5.9975-3.3925-5.9975 6.7912-5.9975 6.7912l28.915 35.479 28.916-35.479" fill="#fffffb"/>
  <path id="path176" d="m-494.64 695.77-50.84-34.1-28.916 34.408-28.915-34.408-50.841 34.1 0.0337 40.402h159.7l-0.22625-40.402" fill="#373839"/>
  <path id="path178" d="m-611.01 589.1c-1.04 3.4188-5.6338 16.439-1.0775 18.558 5.0012 2.3288 15.165-9.2962 18.26-12.071 0.13625 2.1338-0.56375 4.765 1.1262 6.3 2.0575 1.875 5.0375 0.1125 7.0125-1.0412 5.3238-3.1088 9.045-6.9125 13.05-11.502-0.62125 4.3088 1.7662 7.8512 6.2938 6.6625 6.1175-1.6038 11.084-7.8375 15.44-11.955-0.3525 5.8838 6.025 5.8638 9.645 2.4338 1.3325-1.26 3.2575-4.6675 3.44-6.3925 0.66125-6.22-8.82-10.904-13.381-13.656-6.585-3.97-11.699-6.4-19.524-6.4088-10.085-0.01-19.958 1.8938-27.265 9.155-1.3038 1.2962-5.5225 4.7925-3.505 5.97l-9.515 13.949" fill="#c14b55"/>
  <path id="path180" d="m-574.4 528.55-77.282 28.284v6.7738l33.86 9.1612v20.511s13.472-3.855 43.422-5.755c29.174 1.7475 43.424 5.755 43.424 5.755v-20.511l33.859-9.1612v-6.7738l-77.282-28.284" fill="#373839"/>
  <path id="path182" d="m-504.8 610c1.3338-0.25 2.345-1.415 2.345-2.8225 0-1.5875-1.2875-2.8762-2.8775-2.8762h-0.49v-52.466c0-2.1875-1.7712-3.96-3.9575-3.96-2.1862 0-3.9588 1.7725-3.9588 3.96v52.466h-0.0312c-1.5875 0-2.8762 1.2888-2.8762 2.8762 0 1.2588 0.81375 2.3162 1.9388 2.7075-3.925 8.3825-6.4112 14.62-5.355 15.545 7.445 6.5325 13.119 6.5325 20.564 0 1.0512-0.92125-1.385-7.0662-5.3012-15.43" fill="#505253"/>
  <path id="path184" d="m-542.11 636.15c0.0637-0.1375 0.1275-0.2775 0.19-0.41625 1.1325-1.1912 2.2-2.4425 3.1975-3.7525-1.045 1.4625-2.1762 2.855-3.3875 4.1688" fill="#e3ad98"/>
  <path id="path186" d="m-541.92 635.73c1.4338-3.185 2.5638-6.6662 3.3438-10.469 0.4225 0.12 0.855 0.19375 1.2988 0.19375 1.015 0 1.9775-0.3275 2.8425-0.9125-1.1988 2.6325-2.6362 5.1225-4.2875 7.435-0.9975 1.31-2.065 2.5612-3.1975 3.7525m11.1-23.321c-0.88625-3.99-3.4425-6.8738-6.4575-6.8738-0.15375 0-0.30125 0.0512-0.455 0.0688-0.58-5.06-1.7612-9.8688-3.4462-14.301 6.2388 1.1038 9.325 1.9725 9.325 1.9725v-0.22875c0.0162 0.004 0.0325 0.009 0.0487 0.0125 1.02 3.755 1.5662 7.7088 1.5662 11.788 0 2.5775-0.19875 5.1038-0.58125 7.5625" fill="#b13d47"/>
  <path id="path188" d="m-531.81 593.06c-0.0162-0.004-0.0325-0.009-0.0487-0.0125v-0.16625c0.0162 0.06 0.0325 0.11875 0.0487 0.17875" fill="#322a2b"/>
  <path id="path190" d="m-574.42 663.15-0.6325-71.11c0.48125-0.51875 0.96125-1.0488 1.4438-1.59-0.0825 3.2338 1.62 5.7925 4.695 5.7925 0.14625 0 0.29375-0.005 0.44625-0.0175 0.14 0.0113 0.285 0.0175 0.43125 0.0175 0.525 0 1.09-0.0738 1.6925-0.2325 3.8438-1.0075 7.2338-3.8438 10.302-6.8338 6.1262 0.70375 11.076 1.46 14.864 2.13 1.685 4.4325 2.8662 9.2412 3.4462 14.301 0.15375-0.0175 0.30125-0.0688 0.455-0.0688 3.75 0 6.7888 4.4588 6.7888 9.96 0 5.5-3.0388 9.96-6.7888 9.96-0.44375 0-0.87625-0.0738-1.2988-0.19375-2.7075 13.206-9.6538 22.564-18.791 28.911l0.0112 2.3812c-7.7512 3.89-14.191 5.8825-17.065 6.5925" fill="#f9a943"/>
  <path id="path192" d="m-568.04 596.24c-0.14625 0-0.29125-0.006-0.43125-0.0175 0.395-0.03 0.81-0.10125 1.2462-0.215 3.8812-1.0175 7.2988-3.9 10.392-6.9225 0.265 0.03 0.52625 0.0587 0.7875 0.0887-3.0688 2.99-6.4588 5.8262-10.302 6.8338-0.6025 0.15875-1.1675 0.2325-1.6925 0.2325m-7.0162-4.2025-0.009-0.95375c0.51375-0.5675 1.0275-1.1438 1.5462-1.7388-0.0537 0.37375-0.085 0.7425-0.0937 1.1025-0.4825 0.54125-0.9625 1.0712-1.4438 1.59" fill="#c44847"/>
  <path id="path194" d="m-575.28 566.9-0.0263-3.0125h0.0263v3.0125" fill="#37332c"/>
  <path id="path196" d="m-574.4 696.08-0.0362-0.0437-1.0662-32.645c0.26625-0.05 0.62875-0.13 1.08-0.2425 3.4075-0.8425 11.829-3.4862 21.504-8.96 0.81-0.4575 1.535-0.655 2.1862-0.655 4.1738 0 5.2488 8.1388 5.2488 8.1388l-28.916 34.408" fill="#fffffa"/>
  <path id="path198" d="m-574.4 697.15-0.0362-1.115 0.0362 0.0437 28.916-34.408-28.916 34.408v1.0712" fill="#373839"/>
  <path id="path200" d="m-494.42 736.18h-79.982v-40.095l28.916-34.408 50.84 34.1 0.22625 40.402" fill="#292a2b"/>
  <path id="path202" d="m-568.92 596.24c-3.075 0-4.7775-2.5588-4.695-5.7925 0.3225-0.3625 0.645-0.73 0.97125-1.1025-0.51625 3.575 1.04 6.6212 4.17 6.8775-0.1525 0.0125-0.3 0.0175-0.44625 0.0175" fill="#f79441"/>
  <path id="path204" d="m-568.47 596.22c-3.13-0.25625-4.6862-3.3025-4.17-6.8775-0.32625 0.3725-0.64875 0.74-0.97125 1.1025 0.009-0.36 0.04-0.72875 0.0937-1.1025-0.51875 0.595-1.0325 1.1712-1.5462 1.7388-0.0712 0.0788-0.1425 0.1575-0.215 0.23625v-3.7425c0.15-0.01 0.30125-0.0187 0.4525-0.0288 6.8188 0.41625 12.815 0.955 17.995 1.5362-3.0938 3.0225-6.5112 5.905-10.392 6.9225-0.43625 0.11375-0.85125 0.185-1.2462 0.215" fill="#b13d47"/>
  <path id="path206" d="m-575.28 587.58v-27.459 27.402c0.15125 0.009 0.30125 0.0175 0.4525 0.0275-0.15125 0.01-0.3025 0.0188-0.4525 0.0288" fill="#322a2b"/>
  <path id="path208" d="m-575.28 528.87v-0.3225l0.44 0.16125-0.44 0.16125" fill="#b8ad94"/>
  <path id="path210" d="m-531.85 593.28s-3.0862-0.86875-9.325-1.9725c-0.0212-0.055-0.0412-0.10875-0.0625-0.16375 4.8538 0.83375 7.9738 1.5562 9.3875 1.9075v0.22875" fill="#943943"/>
  <path id="path212" d="m-541.18 591.31c-3.7875-0.67-8.7375-1.4262-14.864-2.13 0.03-0.0287 0.0612-0.0587 0.0913-0.0887 5.9888 0.67125 10.886 1.3975 14.71 2.055 0.0213 0.055 0.0413 0.10875 0.0625 0.16375" fill="#d3973e"/>
  <path id="path214" d="m-556.04 589.18c-0.26125-0.03-0.5225-0.0587-0.7875-0.0887-5.18-0.58125-11.176-1.12-17.995-1.5362 0.14125-0.01 0.28375-0.0187 0.42625-0.0275 7.0075 0.42 13.154 0.97 18.448 1.5638-0.03 0.03-0.0613 0.06-0.0913 0.0887" fill="#943943"/>
  <path id="path216" d="m-531.85 593.05c-1.4138-0.35125-4.5338-1.0738-9.3875-1.9075-3.8238-0.6575-8.7212-1.3838-14.71-2.055-5.2938-0.59375-11.44-1.1438-18.448-1.5638-0.1425 0.009-0.285 0.0175-0.42625 0.0275-0.15125-0.01-0.30125-0.0187-0.4525-0.0275v-58.652l0.44-0.16125 60.36 22.09c-0.0888 0.33125-0.13625 0.67875-0.13625 1.0375v16.266l-17.24 4.6638v20.282m26.034-27.326v-11.755l7.8262 2.8638v6.7738l-7.8262 2.1175" fill="#292a2b"/>
  <path id="path218" d="m-506.7 565.96v-12.314l0.87625 0.32125v11.755l-0.87625 0.2375" fill="#3d3f40"/>
  <path id="path220" d="m-510.66 630.33c-3.28 0-6.5588-1.6325-10.281-4.8988-1.0562-0.925 1.4288-7.1625 5.3538-15.545-1.1238-0.39125-1.9375-1.4488-1.9375-2.7075 0-1.5875 1.2888-2.8762 2.8762-2.8762h0.0312v-35.962l0.8775-0.2375v36.2h-0.0312c-1.5875 0-2.8762 1.2888-2.8762 2.8762 0 1.2588 0.81375 2.3162 1.9388 2.7075-3.925 8.3825-6.4112 14.62-5.355 15.545 3.5562 3.12 6.7088 4.75 9.8425 4.89-0.14625 0.006-0.2925 0.009-0.43875 0.009m-2.9438-79.532-0.7875-0.28875c0.545-1.535 2.01-2.6338 3.7312-2.6338 0.14875 0 0.295 0.009 0.43875 0.0237-1.6312 0.18125-2.9638 1.3512-3.3825 2.8988" fill="#c1b399"/>
  <path id="path222" d="m-514.61 568.34v-16.504c0-0.35875 0.0475-0.70625 0.13625-1.0375 0.0263-0.0975 0.0575-0.19375 0.09-0.28875l0.7875 0.28875c-0.0888 0.33125-0.13625 0.67875-0.13625 1.0375v16.266l-0.8775 0.2375" fill="#2b2c2d"/>
  <path id="path224" d="m-510.22 630.32c-3.1338-0.14-6.2862-1.77-9.8425-4.89-1.0562-0.925 1.43-7.1625 5.355-15.545-1.125-0.39125-1.9388-1.4488-1.9388-2.7075 0-1.5875 1.2888-2.8762 2.8762-2.8762h0.0312v-52.466c0-0.35875 0.0475-0.70625 0.13625-1.0375 0.41875-1.5475 1.7512-2.7175 3.3825-2.8988 1.9812 0.21875 3.5212 1.8975 3.5212 3.9362v52.466h0.4875c1.59 0 2.8788 1.2888 2.8788 2.8762 0 1.4075-1.0112 2.5725-2.345 2.8225 3.915 8.3638 6.3512 14.509 5.3012 15.43-3.5562 3.12-6.71 4.75-9.8438 4.89" fill="#3f4143"/>
 </g>
</svg>
