<?xml version="1.0" encoding="UTF-8" standalone="no"?>
<!-- Created with Inkscape (http://www.inkscape.org/) -->
<svg id="svg5292" xmlns:rdf="http://www.w3.org/1999/02/22-rdf-syntax-ns#" xmlns="http://www.w3.org/2000/svg" height="41.307mm" width="41.307mm" version="1.1" xmlns:cc="http://creativecommons.org/ns#" xmlns:dc="http://purl.org/dc/elements/1.1/" viewBox="0 0 146.3625 146.3625">
 <defs id="defs5294">
  <clipPath id="clipPath172" clipPathUnits="userSpaceOnUse">
   <path id="path174" d="m4069.8 6928.4h-157.22l-133.6-590.11 213.52-202.98 213.52 202.98-136.22 590.11"/>
  </clipPath>
 </defs>
 <metadata id="metadata5297">
  <rdf:RDF>
   <cc:Work rdf:about="">
    <dc:format>image/svg+xml</dc:format>
    <dc:type rdf:resource="http://purl.org/dc/dcmitype/StillImage"/>
    <dc:title/>
   </cc:Work>
  </rdf:RDF>
 </metadata>
 <g id="layer1" transform="translate(313.18 -453.47)">
  <g id="g5025" transform="matrix(1.25 0 0 -1.25 -981.45 1466.1)">
   <g>
    <path id="path154" d="m651.71 751.57c0-32.333-26.212-58.544-58.545-58.544-32.334 0-58.545 26.211-58.545 58.544 0 32.334 26.211 58.546 58.545 58.546 32.333 0 58.545-26.212 58.545-58.546" fill="#c5855f"/>
    <path id="path156" d="m596.27 700.54-21.352 20.297 3.345 14.776-0.049 0.002c-0.451 0.037-0.786 0.433-0.748 0.884 0.036 0.428 0.394 0.751 0.815 0.751 0.023 0 0.046-0.001 0.069-0.003 0.095-0.008 0.185-0.033 0.267-0.07l0.234 1.032-2.615-0.916-5.803 7.71 5.594 11.158c-0.117 0.155-0.18 0.351-0.163 0.559 0.036 0.428 0.394 0.751 0.815 0.751 0.002 0 0.003 0 0.004-0.001l7.368 14.696c0.027 0.174 0.107 0.328 0.223 0.446l3.842 7.664-3.345 8.903c-0.854 2.272 0.825 4.698 3.253 4.698h16.141c2.415 0 4.094-2.404 3.263-4.672l-3.429-9.357 13.623-59.011-21.352-20.297" fill="#98674b"/>
    <path id="path158" d="m586.02 784.69-18.457-36.815 5.804-7.71 9.024 3.163 3.629 41.362" fill="#91162e"/>
    <path id="path160" d="m585.41 782.72-13.359-59.011 21.352-20.298v83.299l-7.993-3.99" fill="#e6202b"/>
    <path id="path162" d="m601.13 782.72-7.729 3.99v-83.299l21.352 20.298-13.623 59.011" fill="#ca1c2e"/>
    <path id="path164" d="m581.9 792.05 3.507-9.33h7.993v14.028h-8.246c-2.428 0-4.108-2.425-3.254-4.698" fill="#b21d24"/>
    <path id="path166" d="m601.3 796.75h-7.894v-14.028h7.729l3.428 9.357c0.831 2.268-0.847 4.671-3.263 4.671" fill="#971a21"/>
   </g>
   <g id="g168" transform="matrix(.1 0 0 .1 194.15 89.886)">
    <g id="g170" fill="#f35e84" clip-path="url(#clipPath172)">
     <path id="path176" d="m3961.2 6923.7c-0.38-4.51-4.34-7.86-8.84-7.48-4.51 0.38-7.86 4.33-7.48 8.84 0.37 4.51 4.33 7.86 8.84 7.48s7.85-4.34 7.48-8.84"/>
     <path id="path178" d="m3923.9 6886.6c-0.38-4.5-4.34-7.85-8.84-7.48-4.51 0.38-7.86 4.34-7.48 8.85 0.38 4.5 4.33 7.85 8.84 7.48 4.51-0.38 7.86-4.34 7.48-8.85"/>
     <path id="path180" d="m3886.5 6849.6c-0.37-4.51-4.33-7.86-8.84-7.48s-7.86 4.34-7.48 8.84c0.38 4.51 4.34 7.86 8.84 7.48 4.51-0.37 7.86-4.33 7.48-8.84"/>
     <path id="path182" d="m3849.2 6812.5c-0.37-4.51-4.33-7.86-8.84-7.48-4.51 0.37-7.85 4.33-7.48 8.84 0.38 4.51 4.34 7.86 8.85 7.48 4.5-0.38 7.85-4.34 7.47-8.84"/>
     <path id="path184" d="m3811.9 6775.5c-0.38-4.5-4.34-7.85-8.85-7.48-4.5 0.38-7.85 4.34-7.47 8.85 0.37 4.5 4.33 7.85 8.84 7.48 4.51-0.38 7.85-4.34 7.48-8.85"/>
     <path id="path186" d="m4028.8 6918c-0.38-4.51-4.34-7.86-8.85-7.48-4.5 0.38-7.85 4.34-7.48 8.84 0.38 4.51 4.34 7.86 8.85 7.48 4.5-0.38 7.85-4.33 7.48-8.84"/>
     <path id="path188" d="m3991.4 6881c-0.38-4.5-4.34-7.85-8.84-7.47-4.51 0.37-7.86 4.33-7.48 8.84 0.37 4.51 4.33 7.85 8.84 7.48 4.51-0.38 7.85-4.34 7.48-8.85"/>
     <path id="path190" d="m3954.1 6843.9c-0.38-4.51-4.34-7.85-8.84-7.48-4.51 0.38-7.86 4.34-7.48 8.85 0.38 4.5 4.33 7.85 8.84 7.47 4.51-0.37 7.86-4.33 7.48-8.84"/>
     <path id="path192" d="m3916.8 6806.9c-0.37-4.51-4.33-7.86-8.84-7.48s-7.86 4.33-7.48 8.84 4.34 7.86 8.84 7.48c4.51-0.38 7.86-4.34 7.48-8.84"/>
     <path id="path194" d="m3879.4 6769.8c-0.37-4.5-4.33-7.85-8.84-7.47-4.51 0.37-7.85 4.33-7.48 8.84 0.38 4.5 4.34 7.85 8.85 7.48 4.5-0.38 7.85-4.34 7.47-8.85"/>
     <path id="path196" d="m3842.1 6732.8c-0.38-4.51-4.34-7.86-8.85-7.48-4.5 0.38-7.85 4.34-7.47 8.84 0.37 4.51 4.33 7.86 8.84 7.48 4.51-0.37 7.85-4.33 7.48-8.84"/>
     <path id="path198" d="m3804.8 6695.7c-0.38-4.51-4.34-7.86-8.84-7.48-4.51 0.37-7.86 4.33-7.48 8.84 0.37 4.51 4.33 7.86 8.84 7.48s7.86-4.34 7.48-8.84"/>
     <path id="path200" d="m4096.3 6912.4c-0.37-4.51-4.33-7.86-8.84-7.48s-7.85 4.34-7.48 8.84c0.38 4.51 4.34 7.86 8.85 7.48 4.5-0.37 7.85-4.33 7.47-8.84"/>
     <path id="path202" d="m4059 6875.3c-0.38-4.51-4.34-7.86-8.85-7.48-4.5 0.37-7.85 4.33-7.48 8.84 0.38 4.51 4.34 7.86 8.85 7.48 4.5-0.38 7.85-4.34 7.48-8.84"/>
     <path id="path204" d="m4021.7 6838.3c-0.38-4.5-4.34-7.85-8.84-7.48-4.51 0.38-7.86 4.34-7.48 8.85 0.37 4.5 4.33 7.85 8.84 7.47 4.51-0.37 7.85-4.33 7.48-8.84"/>
     <path id="path206" d="m3984.3 6801.2c-0.38-4.51-4.34-7.86-8.84-7.48-4.51 0.38-7.86 4.34-7.48 8.84 0.38 4.51 4.33 7.86 8.84 7.48s7.86-4.33 7.48-8.84"/>
     <path id="path208" d="m3947 6764.2c-0.37-4.5-4.33-7.85-8.84-7.47-4.51 0.37-7.86 4.33-7.48 8.84s4.34 7.85 8.84 7.48c4.51-0.38 7.86-4.34 7.48-8.85"/>
     <path id="path210" d="m3909.6 6727.1c-0.37-4.51-4.33-7.85-8.84-7.48-4.51 0.38-7.85 4.34-7.48 8.85 0.38 4.5 4.34 7.85 8.85 7.47 4.5-0.37 7.85-4.33 7.47-8.84"/>
     <path id="path212" d="m3872.3 6690.1c-0.38-4.51-4.34-7.86-8.85-7.48-4.5 0.38-7.85 4.33-7.47 8.84 0.37 4.51 4.33 7.86 8.84 7.48s7.85-4.34 7.48-8.84"/>
     <path id="path214" d="m3835 6653c-0.38-4.5-4.34-7.85-8.84-7.47-4.51 0.37-7.86 4.33-7.48 8.84 0.37 4.51 4.33 7.85 8.84 7.48 4.51-0.38 7.86-4.34 7.48-8.85"/>
     <path id="path216" d="m3797.6 6616c-0.38-4.51-4.33-7.86-8.84-7.48s-7.86 4.34-7.48 8.84c0.38 4.51 4.34 7.86 8.84 7.48 4.51-0.37 7.86-4.33 7.48-8.84"/>
     <path id="path218" d="m4163.9 6906.7c-0.37-4.51-4.33-7.85-8.84-7.48-4.51 0.38-7.86 4.34-7.48 8.85 0.38 4.5 4.34 7.85 8.84 7.47 4.51-0.37 7.86-4.33 7.48-8.84"/>
     <path id="path220" d="m4126.6 6869.7c-0.37-4.51-4.33-7.86-8.84-7.48s-7.85 4.33-7.48 8.84c0.38 4.51 4.34 7.86 8.85 7.48 4.5-0.38 7.85-4.34 7.47-8.84"/>
     <path id="path222" d="m4089.2 6832.6c-0.38-4.5-4.34-7.85-8.85-7.47-4.5 0.37-7.85 4.33-7.47 8.84 0.37 4.5 4.33 7.85 8.84 7.48 4.5-0.38 7.85-4.34 7.48-8.85"/>
     <path id="path224" d="m4051.9 6795.6c-0.38-4.51-4.34-7.86-8.84-7.48-4.51 0.38-7.86 4.34-7.48 8.84 0.37 4.51 4.33 7.86 8.84 7.48 4.51-0.37 7.86-4.33 7.48-8.84"/>
     <path id="path226" d="m4014.6 6758.5c-0.38-4.51-4.34-7.86-8.84-7.48-4.51 0.37-7.86 4.33-7.48 8.84s4.34 7.86 8.84 7.48c4.51-0.38 7.86-4.34 7.48-8.84"/>
     <path id="path228" d="m3977.2 6721.5c-0.37-4.5-4.33-7.85-8.84-7.48-4.51 0.38-7.86 4.34-7.48 8.85 0.38 4.5 4.34 7.85 8.84 7.48 4.51-0.38 7.86-4.34 7.48-8.85"/>
     <path id="path230" d="m3939.9 6684.4c-0.38-4.51-4.34-7.86-8.85-7.48-4.5 0.38-7.85 4.34-7.48 8.84 0.38 4.51 4.34 7.86 8.85 7.48 4.5-0.38 7.85-4.33 7.48-8.84"/>
     <path id="path232" d="m3902.6 6647.4c-0.38-4.51-4.34-7.86-8.85-7.48-4.5 0.37-7.85 4.33-7.47 8.84 0.37 4.51 4.33 7.85 8.84 7.48 4.51-0.38 7.85-4.34 7.48-8.84"/>
     <path id="path234" d="m3865.2 6610.3c-0.38-4.51-4.34-7.85-8.84-7.48-4.51 0.38-7.86 4.34-7.48 8.85 0.38 4.5 4.33 7.85 8.84 7.47 4.51-0.37 7.86-4.33 7.48-8.84"/>
     <path id="path236" d="m3827.9 6573.3c-0.38-4.51-4.33-7.86-8.84-7.48s-7.86 4.34-7.48 8.84c0.38 4.51 4.34 7.86 8.84 7.48 4.51-0.38 7.86-4.34 7.48-8.84"/>
     <path id="path238" d="m3790.5 6536.2c-0.37-4.5-4.33-7.85-8.84-7.47-4.51 0.37-7.85 4.33-7.48 8.84 0.38 4.51 4.34 7.85 8.85 7.48 4.5-0.38 7.85-4.34 7.47-8.85"/>
     <path id="path240" d="m4194.1 6864c-0.37-4.51-4.33-7.86-8.84-7.48s-7.86 4.34-7.48 8.84c0.38 4.51 4.34 7.86 8.84 7.48 4.51-0.38 7.86-4.33 7.48-8.84"/>
     <path id="path242" d="m4156.8 6827c-0.37-4.5-4.33-7.85-8.84-7.47-4.51 0.37-7.85 4.33-7.48 8.84 0.38 4.51 4.34 7.85 8.85 7.48 4.5-0.38 7.85-4.34 7.47-8.85"/>
     <path id="path244" d="m4119.5 6789.9c-0.38-4.51-4.34-7.85-8.85-7.48-4.5 0.38-7.85 4.34-7.47 8.85 0.37 4.5 4.33 7.85 8.84 7.47 4.51-0.37 7.85-4.33 7.48-8.84"/>
     <path id="path246" d="m4082.1 6752.9c-0.38-4.51-4.34-7.86-8.84-7.48-4.51 0.38-7.86 4.33-7.48 8.84 0.37 4.51 4.33 7.86 8.84 7.48s7.86-4.34 7.48-8.84"/>
     <path id="path248" d="m4044.8 6715.8c-0.38-4.5-4.33-7.85-8.84-7.47-4.51 0.37-7.86 4.33-7.48 8.84s4.34 7.85 8.84 7.48c4.51-0.38 7.86-4.34 7.48-8.85"/>
     <path id="path250" d="m4007.4 6678.8c-0.37-4.51-4.33-7.86-8.84-7.48s-7.85 4.34-7.48 8.84c0.38 4.51 4.34 7.86 8.84 7.48 4.51-0.37 7.86-4.33 7.48-8.84"/>
     <path id="path252" d="m3970.1 6641.7c-0.38-4.51-4.34-7.86-8.85-7.48-4.5 0.37-7.85 4.33-7.48 8.84 0.38 4.51 4.34 7.86 8.85 7.48 4.5-0.38 7.85-4.34 7.48-8.84"/>
     <path id="path254" d="m3932.8 6604.7c-0.38-4.5-4.34-7.85-8.85-7.48-4.5 0.38-7.85 4.34-7.47 8.85 0.37 4.5 4.33 7.85 8.84 7.48 4.51-0.38 7.85-4.34 7.48-8.85"/>
     <path id="path256" d="m3895.4 6567.6c-0.38-4.51-4.34-7.86-8.84-7.48-4.51 0.38-7.86 4.34-7.48 8.84 0.38 4.51 4.33 7.86 8.84 7.48s7.86-4.33 7.48-8.84"/>
     <path id="path258" d="m3858.1 6530.6c-0.37-4.51-4.33-7.86-8.84-7.48-4.51 0.37-7.86 4.33-7.48 8.84s4.34 7.85 8.84 7.48c4.51-0.38 7.86-4.34 7.48-8.84"/>
     <path id="path260" d="m3820.8 6493.5c-0.37-4.51-4.33-7.85-8.84-7.48-4.51 0.38-7.85 4.34-7.48 8.85 0.38 4.5 4.34 7.85 8.85 7.47 4.5-0.37 7.85-4.33 7.47-8.84"/>
     <path id="path262" d="m3783.4 6456.4c-0.38-4.51-4.34-7.86-8.85-7.48-4.5 0.38-7.85 4.34-7.47 8.84 0.37 4.51 4.33 7.86 8.84 7.48 4.5-0.38 7.85-4.34 7.48-8.84"/>
     <path id="path264" d="m4187 6784.3c-0.37-4.5-4.33-7.85-8.84-7.48-4.51 0.38-7.85 4.34-7.48 8.85 0.38 4.5 4.34 7.85 8.85 7.48 4.5-0.38 7.85-4.34 7.47-8.85"/>
     <path id="path266" d="m4149.7 6747.2c-0.38-4.51-4.34-7.86-8.85-7.48-4.5 0.38-7.85 4.34-7.47 8.84 0.37 4.51 4.33 7.86 8.84 7.48s7.85-4.33 7.48-8.84"/>
     <path id="path268" d="m4112.4 6710.2c-0.38-4.51-4.34-7.86-8.84-7.48-4.51 0.37-7.86 4.33-7.48 8.84 0.37 4.51 4.33 7.85 8.84 7.48 4.51-0.38 7.86-4.34 7.48-8.84"/>
     <path id="path270" d="m4075 6673.1c-0.38-4.51-4.33-7.85-8.84-7.48-4.51 0.38-7.86 4.34-7.48 8.85 0.38 4.5 4.34 7.85 8.84 7.47 4.51-0.37 7.86-4.33 7.48-8.84"/>
     <path id="path272" d="m4037.7 6636.1c-0.37-4.51-4.33-7.86-8.84-7.48s-7.85 4.34-7.48 8.84c0.38 4.51 4.34 7.86 8.85 7.48 4.5-0.38 7.85-4.34 7.47-8.84"/>
     <path id="path274" d="m4000.4 6599c-0.38-4.5-4.34-7.85-8.85-7.47-4.5 0.37-7.85 4.33-7.48 8.84 0.38 4.51 4.34 7.85 8.85 7.48 4.5-0.38 7.85-4.34 7.48-8.85"/>
     <path id="path276" d="m3963 6562c-0.38-4.51-4.34-7.85-8.85-7.48-4.5 0.38-7.85 4.34-7.47 8.84 0.37 4.51 4.33 7.86 8.84 7.48 4.51-0.37 7.85-4.33 7.48-8.84"/>
     <path id="path278" d="m3925.7 6524.9c-0.38-4.51-4.34-7.86-8.84-7.48-4.51 0.37-7.86 4.33-7.48 8.84s4.33 7.86 8.84 7.48 7.86-4.34 7.48-8.84"/>
     <path id="path280" d="m3888.3 6487.8c-0.37-4.5-4.33-7.85-8.84-7.48-4.51 0.38-7.86 4.34-7.48 8.85 0.38 4.5 4.34 7.85 8.84 7.48 4.51-0.38 7.86-4.34 7.48-8.85"/>
     <path id="path282" d="m3851 6450.8c-0.37-4.51-4.33-7.86-8.84-7.48s-7.85 4.34-7.48 8.84c0.38 4.51 4.34 7.86 8.85 7.48 4.5-0.37 7.85-4.33 7.47-8.84"/>
     <path id="path284" d="m3813.7 6413.8c-0.38-4.51-4.34-7.86-8.85-7.48-4.5 0.37-7.85 4.33-7.47 8.84 0.37 4.51 4.33 7.86 8.84 7.48 4.5-0.38 7.85-4.34 7.48-8.84"/>
     <path id="path286" d="m4217.3 6741.6c-0.38-4.51-4.34-7.86-8.85-7.48-4.5 0.38-7.85 4.34-7.48 8.84 0.38 4.51 4.34 7.86 8.85 7.48 4.5-0.37 7.85-4.33 7.48-8.84"/>
     <path id="path288" d="m4179.9 6704.5c-0.38-4.51-4.34-7.86-8.85-7.48-4.5 0.37-7.85 4.33-7.47 8.84 0.37 4.51 4.33 7.86 8.84 7.48s7.85-4.34 7.48-8.84"/>
     <path id="path290" d="m4142.6 6667.5c-0.38-4.5-4.34-7.85-8.84-7.48-4.51 0.38-7.86 4.34-7.48 8.85 0.37 4.5 4.33 7.85 8.84 7.48 4.51-0.38 7.86-4.34 7.48-8.85"/>
     <path id="path292" d="m4105.2 6630.4c-0.38-4.51-4.33-7.86-8.84-7.48s-7.86 4.34-7.48 8.84c0.38 4.51 4.34 7.86 8.84 7.48 4.51-0.37 7.86-4.33 7.48-8.84"/>
     <path id="path294" d="m4067.9 6593.4c-0.37-4.51-4.33-7.86-8.84-7.48-4.51 0.37-7.85 4.33-7.48 8.84 0.38 4.51 4.34 7.85 8.85 7.48 4.5-0.38 7.85-4.34 7.47-8.84"/>
     <path id="path296" d="m4030.6 6556.3c-0.38-4.51-4.34-7.85-8.85-7.48-4.5 0.38-7.85 4.34-7.48 8.85 0.38 4.5 4.34 7.85 8.85 7.47 4.5-0.37 7.85-4.33 7.48-8.84"/>
     <path id="path298" d="m3993.2 6519.3c-0.38-4.51-4.34-7.86-8.84-7.48-4.51 0.38-7.86 4.34-7.48 8.84 0.37 4.51 4.33 7.86 8.84 7.48s7.85-4.34 7.48-8.84"/>
     <path id="path300" d="m3955.9 6482.2c-0.38-4.5-4.34-7.85-8.84-7.47-4.51 0.37-7.86 4.33-7.48 8.84s4.33 7.85 8.84 7.48c4.51-0.38 7.86-4.34 7.48-8.85"/>
     <path id="path302" d="m3918.6 6445.2c-0.37-4.51-4.33-7.85-8.84-7.48-4.51 0.38-7.86 4.34-7.48 8.84 0.38 4.51 4.34 7.86 8.84 7.48 4.51-0.37 7.86-4.33 7.48-8.84"/>
     <path id="path304" d="m3881.2 6408.1c-0.37-4.51-4.33-7.86-8.84-7.48s-7.85 4.33-7.48 8.84c0.38 4.51 4.34 7.86 8.85 7.48 4.5-0.38 7.85-4.34 7.47-8.84"/>
     <path id="path306" d="m3843.9 6371c-0.38-4.5-4.34-7.85-8.85-7.48-4.5 0.38-7.85 4.34-7.47 8.85 0.37 4.5 4.33 7.85 8.84 7.48 4.51-0.38 7.85-4.34 7.48-8.85"/>
     <path id="path308" d="m3806.6 6334c-0.38-4.51-4.34-7.86-8.84-7.48-4.51 0.38-7.86 4.34-7.48 8.84 0.37 4.51 4.33 7.86 8.84 7.48 4.51-0.37 7.86-4.33 7.48-8.84"/>
     <path id="path310" d="m4210.2 6661.8c-0.38-4.5-4.34-7.85-8.85-7.47-4.5 0.37-7.85 4.33-7.47 8.84 0.37 4.51 4.33 7.85 8.84 7.48 4.51-0.38 7.85-4.34 7.48-8.85"/>
     <path id="path312" d="m4172.8 6624.8c-0.38-4.51-4.34-7.85-8.84-7.48-4.51 0.38-7.86 4.34-7.48 8.84 0.38 4.51 4.33 7.86 8.84 7.48 4.51-0.37 7.86-4.33 7.48-8.84"/>
     <path id="path314" d="m4135.5 6587.7c-0.38-4.51-4.33-7.86-8.84-7.48s-7.86 4.33-7.48 8.84 4.34 7.86 8.84 7.48c4.51-0.38 7.86-4.34 7.48-8.84"/>
     <path id="path316" d="m4098.1 6550.7c-0.37-4.5-4.33-7.85-8.84-7.48-4.51 0.38-7.85 4.34-7.48 8.85 0.38 4.5 4.34 7.85 8.85 7.48 4.5-0.38 7.85-4.34 7.47-8.85"/>
     <path id="path318" d="m4060.8 6513.6c-0.38-4.51-4.34-7.86-8.85-7.48-4.5 0.38-7.85 4.34-7.48 8.84 0.38 4.51 4.34 7.86 8.85 7.48 4.5-0.37 7.85-4.33 7.48-8.84"/>
     <path id="path320" d="m4023.5 6476.6c-0.38-4.51-4.34-7.86-8.84-7.48-4.51 0.37-7.86 4.33-7.48 8.84 0.37 4.51 4.33 7.86 8.84 7.48s7.85-4.34 7.48-8.84"/>
     <path id="path322" d="m3986.1 6439.5c-0.38-4.51-4.34-7.85-8.84-7.48-4.51 0.38-7.86 4.34-7.48 8.85 0.38 4.5 4.33 7.85 8.84 7.47 4.51-0.37 7.86-4.33 7.48-8.84"/>
     <path id="path324" d="m3948.8 6402.4c-0.37-4.51-4.33-7.86-8.84-7.48s-7.86 4.34-7.48 8.84c0.38 4.51 4.34 7.86 8.84 7.48 4.51-0.38 7.86-4.33 7.48-8.84"/>
     <path id="path326" d="m3911.4 6365.4c-0.37-4.5-4.33-7.85-8.84-7.47-4.51 0.37-7.85 4.33-7.48 8.84 0.38 4.51 4.34 7.85 8.85 7.48 4.5-0.38 7.85-4.34 7.47-8.85"/>
     <path id="path328" d="m3874.1 6328.3c-0.38-4.51-4.34-7.85-8.85-7.48-4.5 0.38-7.85 4.34-7.47 8.85 0.37 4.5 4.33 7.85 8.84 7.47 4.51-0.37 7.85-4.33 7.48-8.84"/>
     <path id="path330" d="m3836.8 6291.3c-0.38-4.51-4.34-7.86-8.84-7.48-4.51 0.38-7.86 4.33-7.48 8.84 0.37 4.51 4.33 7.86 8.84 7.48s7.86-4.34 7.48-8.84"/>
     <path id="path332" d="m3799.4 6254.2c-0.38-4.5-4.33-7.85-8.84-7.47-4.51 0.37-7.86 4.33-7.48 8.84 0.38 4.5 4.34 7.85 8.84 7.48 4.51-0.38 7.86-4.34 7.48-8.85"/>
     <path id="path334" d="m4203 6582.1c-0.38-4.51-4.34-7.86-8.84-7.48-4.51 0.38-7.86 4.34-7.48 8.84 0.38 4.51 4.33 7.86 8.84 7.48s7.86-4.34 7.48-8.84"/>
     <path id="path336" d="m4165.7 6545c-0.37-4.5-4.33-7.85-8.84-7.47-4.51 0.37-7.86 4.33-7.48 8.84s4.34 7.85 8.84 7.48c4.51-0.38 7.86-4.34 7.48-8.85"/>
     <path id="path338" d="m4128.4 6508c-0.37-4.51-4.33-7.85-8.84-7.48-4.51 0.38-7.85 4.34-7.48 8.84 0.38 4.51 4.34 7.86 8.85 7.48 4.5-0.37 7.85-4.33 7.47-8.84"/>
     <path id="path340" d="m4091 6470.9c-0.38-4.51-4.34-7.86-8.85-7.48-4.5 0.38-7.85 4.33-7.48 8.84 0.38 4.51 4.34 7.86 8.85 7.48 4.5-0.38 7.85-4.34 7.48-8.84"/>
     <path id="path342" d="m4053.7 6433.8c-0.38-4.5-4.34-7.85-8.84-7.48-4.51 0.38-7.86 4.34-7.48 8.85 0.37 4.5 4.33 7.85 8.84 7.48 4.51-0.38 7.86-4.34 7.48-8.85"/>
     <path id="path344" d="m4016.4 6396.8c-0.38-4.51-4.34-7.86-8.84-7.48-4.51 0.38-7.86 4.34-7.48 8.84 0.38 4.51 4.34 7.86 8.84 7.48 4.51-0.37 7.86-4.33 7.48-8.84"/>
     <path id="path346" d="m3979 6359.8c-0.37-4.51-4.33-7.86-8.84-7.48-4.51 0.37-7.86 4.33-7.48 8.84s4.34 7.86 8.84 7.48c4.51-0.38 7.86-4.34 7.48-8.84"/>
     <path id="path348" d="m3941.7 6322.7c-0.37-4.5-4.33-7.85-8.84-7.48-4.51 0.38-7.85 4.34-7.48 8.85 0.38 4.5 4.34 7.85 8.85 7.48 4.5-0.38 7.85-4.34 7.47-8.85"/>
     <path id="path350" d="m3904.4 6285.6c-0.38-4.51-4.34-7.86-8.85-7.48-4.5 0.38-7.85 4.34-7.47 8.84 0.37 4.51 4.33 7.86 8.84 7.48s7.85-4.33 7.48-8.84"/>
     <path id="path352" d="m3867 6248.6c-0.38-4.5-4.34-7.85-8.84-7.47-4.51 0.37-7.86 4.33-7.48 8.84 0.37 4.51 4.33 7.85 8.84 7.48 4.51-0.38 7.86-4.34 7.48-8.85"/>
     <path id="path354" d="m3829.7 6211.5c-0.38-4.51-4.33-7.85-8.84-7.48-4.51 0.38-7.86 4.34-7.48 8.85 0.38 4.5 4.34 7.85 8.84 7.47 4.51-0.37 7.86-4.33 7.48-8.84"/>
     <path id="path356" d="m3792.3 6174.5c-0.37-4.51-4.33-7.86-8.84-7.48s-7.85 4.33-7.48 8.84c0.38 4.51 4.34 7.86 8.85 7.48 4.5-0.38 7.85-4.34 7.47-8.84"/>
     <path id="path358" d="m4195.9 6502.3c-0.37-4.51-4.33-7.85-8.84-7.48-4.51 0.38-7.86 4.34-7.48 8.85 0.38 4.5 4.34 7.85 8.84 7.47 4.51-0.37 7.86-4.33 7.48-8.84"/>
     <path id="path360" d="m4158.6 6465.3c-0.37-4.51-4.33-7.86-8.84-7.48s-7.85 4.34-7.48 8.84c0.38 4.51 4.34 7.86 8.85 7.48 4.5-0.38 7.85-4.33 7.47-8.84"/>
     <path id="path362" d="m4121.3 6428.2c-0.38-4.5-4.34-7.85-8.85-7.47-4.5 0.37-7.85 4.33-7.47 8.84 0.37 4.51 4.33 7.85 8.84 7.48 4.5-0.38 7.85-4.34 7.48-8.85"/>
     <path id="path364" d="m4083.9 6391.2c-0.38-4.51-4.34-7.85-8.84-7.48-4.51 0.38-7.86 4.34-7.48 8.85 0.37 4.5 4.33 7.85 8.84 7.47 4.51-0.37 7.86-4.33 7.48-8.84"/>
     <path id="path366" d="m4046.6 6354.1c-0.38-4.51-4.34-7.86-8.84-7.48-4.51 0.38-7.86 4.33-7.48 8.84s4.34 7.86 8.84 7.48c4.51-0.38 7.86-4.34 7.48-8.84"/>
     <path id="path368" d="m4009.2 6317c-0.37-4.5-4.33-7.85-8.84-7.47-4.51 0.37-7.86 4.33-7.48 8.84 0.38 4.5 4.34 7.85 8.84 7.48 4.51-0.38 7.86-4.34 7.48-8.85"/>
     <path id="path370" d="m3971.9 6280c-0.37-4.51-4.33-7.86-8.84-7.48-4.5 0.38-7.85 4.34-7.48 8.84 0.38 4.51 4.34 7.86 8.85 7.48 4.5-0.37 7.85-4.33 7.47-8.84"/>
     <path id="path372" d="m3934.6 6242.9c-0.38-4.51-4.34-7.86-8.85-7.48-4.5 0.37-7.85 4.33-7.47 8.84 0.37 4.51 4.33 7.86 8.84 7.48s7.85-4.34 7.48-8.84"/>
     <path id="path374" d="m3897.2 6205.9c-0.38-4.5-4.34-7.85-8.84-7.48-4.51 0.38-7.86 4.34-7.48 8.85 0.37 4.5 4.33 7.85 8.84 7.48 4.51-0.38 7.86-4.34 7.48-8.85"/>
     <path id="path376" d="m3859.9 6168.8c-0.38-4.51-4.33-7.86-8.84-7.48s-7.86 4.34-7.48 8.84c0.38 4.51 4.34 7.86 8.84 7.48 4.51-0.38 7.86-4.33 7.48-8.84"/>
     <path id="path378" d="m3822.6 6131.8c-0.37-4.5-4.33-7.85-8.84-7.47-4.51 0.37-7.85 4.33-7.48 8.84 0.38 4.51 4.34 7.85 8.85 7.48 4.5-0.38 7.85-4.34 7.47-8.85"/>
     <path id="path380" d="m4188.8 6422.6c-0.37-4.51-4.33-7.86-8.84-7.48-4.51 0.37-7.85 4.33-7.48 8.84 0.38 4.51 4.34 7.86 8.85 7.48 4.5-0.38 7.85-4.34 7.47-8.84"/>
     <path id="path382" d="m4151.5 6385.5c-0.38-4.5-4.34-7.85-8.85-7.48-4.5 0.38-7.85 4.34-7.47 8.85 0.37 4.5 4.33 7.85 8.84 7.48 4.51-0.38 7.85-4.34 7.48-8.85"/>
     <path id="path384" d="m4114.2 6348.4c-0.38-4.51-4.34-7.86-8.84-7.48-4.51 0.38-7.86 4.34-7.48 8.84 0.37 4.51 4.33 7.86 8.84 7.48s7.86-4.33 7.48-8.84"/>
     <path id="path386" d="m4076.8 6311.4c-0.38-4.5-4.33-7.85-8.84-7.47-4.51 0.37-7.86 4.33-7.48 8.84s4.34 7.85 8.84 7.48c4.51-0.38 7.86-4.34 7.48-8.85"/>
     <path id="path388" d="m4039.5 6274.3c-0.37-4.51-4.33-7.85-8.84-7.48-4.51 0.38-7.85 4.34-7.48 8.85 0.38 4.5 4.34 7.85 8.84 7.47 4.51-0.37 7.86-4.33 7.48-8.84"/>
     <path id="path390" d="m4002.2 6237.3c-0.38-4.51-4.34-7.86-8.85-7.48-4.5 0.38-7.85 4.33-7.48 8.84 0.38 4.51 4.34 7.86 8.85 7.48 4.5-0.38 7.85-4.34 7.48-8.84"/>
     <path id="path392" d="m3964.8 6200.2c-0.38-4.5-4.34-7.85-8.85-7.47-4.5 0.37-7.85 4.33-7.47 8.84 0.37 4.51 4.33 7.85 8.84 7.48 4.51-0.38 7.85-4.34 7.48-8.85"/>
     <path id="path394" d="m3927.5 6163.2c-0.38-4.51-4.34-7.86-8.84-7.48-4.51 0.38-7.86 4.34-7.48 8.84 0.38 4.51 4.33 7.86 8.84 7.48 4.51-0.37 7.86-4.33 7.48-8.84"/>
     <path id="path396" d="m3890.1 6126.1c-0.38-4.51-4.33-7.86-8.84-7.48-4.51 0.37-7.86 4.33-7.48 8.84s4.34 7.86 8.84 7.48c4.51-0.38 7.86-4.34 7.48-8.84"/>
     <path id="path398" d="m4219.1 6379.8c-0.37-4.5-4.33-7.85-8.84-7.47-4.51 0.37-7.85 4.33-7.48 8.84 0.38 4.5 4.34 7.85 8.85 7.48 4.5-0.38 7.85-4.34 7.47-8.85"/>
     <path id="path400" d="m4181.7 6342.8c-0.38-4.51-4.34-7.86-8.85-7.48-4.5 0.38-7.85 4.34-7.47 8.84 0.37 4.51 4.33 7.86 8.84 7.48 4.51-0.37 7.85-4.33 7.48-8.84"/>
     <path id="path402" d="m4144.4 6305.8c-0.38-4.51-4.34-7.86-8.84-7.48-4.51 0.37-7.86 4.33-7.48 8.84 0.37 4.51 4.33 7.86 8.84 7.48s7.86-4.34 7.48-8.84"/>
     <path id="path404" d="m4107 6268.7c-0.38-4.5-4.33-7.85-8.84-7.48-4.51 0.38-7.86 4.34-7.48 8.85 0.38 4.5 4.34 7.85 8.84 7.48 4.51-0.38 7.86-4.34 7.48-8.85"/>
     <path id="path406" d="m4069.7 6231.6c-0.37-4.51-4.33-7.86-8.84-7.48s-7.85 4.34-7.48 8.84c0.38 4.51 4.34 7.86 8.85 7.48 4.5-0.38 7.85-4.33 7.47-8.84"/>
     <path id="path408" d="m4032.4 6194.6c-0.38-4.5-4.34-7.85-8.85-7.47-4.5 0.37-7.85 4.33-7.48 8.84 0.38 4.51 4.34 7.85 8.85 7.48 4.5-0.38 7.85-4.34 7.48-8.85"/>
     <path id="path410" d="m3995 6157.5c-0.38-4.51-4.34-7.85-8.85-7.48-4.5 0.38-7.85 4.34-7.47 8.85 0.37 4.5 4.33 7.85 8.84 7.47 4.51-0.37 7.85-4.33 7.48-8.84"/>
    </g>
   </g>
  </g>
 </g>
</svg>
